<svg width="40" height="40" viewBox="0 0 40 40" fill="none" xmlns="http://www.w3.org/2000/svg">
<path d="M14.2203 23.024V18.416C13.9216 18.832 13.5723 19.04 13.1723 19.04H12.9723V18.456C13.2069 18.4293 13.4203 18.3733 13.6123 18.288C13.8789 18.16 14.0629 17.7973 14.1643 17.2H14.9083V23.024H14.2203ZM18.6747 17.248H18.7947C19.264 17.248 19.6587 17.408 19.9787 17.728C20.1974 17.9467 20.344 18.2107 20.4187 18.52L19.7627 18.76C19.72 18.536 19.616 18.3413 19.4507 18.176C19.2854 18.0107 19.0667 17.928 18.7947 17.928H18.6747C18.376 17.928 18.136 18.0587 17.9547 18.32C17.7627 18.5813 17.6667 18.8907 17.6667 19.248V19.896C17.7574 19.7413 17.8907 19.6187 18.0667 19.528C18.248 19.4427 18.4507 19.4 18.6747 19.4H18.7947C19.296 19.4 19.7014 19.5867 20.0107 19.96C20.32 20.3333 20.4747 20.744 20.4747 21.192V21.336C20.4747 21.8213 20.3094 22.2427 19.9787 22.6C19.6534 22.9573 19.2587 23.136 18.7947 23.136H18.6747C18.2 23.136 17.7974 22.9573 17.4667 22.6C17.1414 22.2373 16.9787 21.816 16.9787 21.336V19.248C16.9787 18.64 17.1414 18.1547 17.4667 17.792C17.7974 17.4293 18.2 17.248 18.6747 17.248ZM18.6747 22.448H18.7947C19.0614 22.448 19.2934 22.3413 19.4907 22.128C19.688 21.9147 19.7867 21.6507 19.7867 21.336V21.192C19.7867 20.9093 19.696 20.6533 19.5147 20.424C19.3334 20.2 19.0934 20.088 18.7947 20.088H18.6747C18.3867 20.088 18.1467 20.2053 17.9547 20.44C17.7627 20.6747 17.6667 20.9253 17.6667 21.192V21.336C17.6667 21.64 17.768 21.9013 17.9707 22.12C18.1734 22.3387 18.408 22.448 18.6747 22.448ZM21.7131 19.856V18.872H22.6891V19.856H21.7131ZM21.7131 23.024V22.04H22.6891V23.024H21.7131ZM25.6693 23.136H25.5493C25.08 23.136 24.6853 22.976 24.3653 22.656C24.152 22.4427 24.0053 22.1787 23.9253 21.864L24.5813 21.624C24.624 21.848 24.728 22.0427 24.8933 22.208C25.0586 22.3733 25.2773 22.456 25.5493 22.456H25.6693C25.9626 22.456 26.2053 22.3467 26.3973 22.128C26.584 21.9093 26.6773 21.624 26.6773 21.272V20.408C26.5866 20.5627 26.4453 20.6853 26.2533 20.776C26.0613 20.8613 25.8666 20.904 25.6693 20.904H25.5493C25.048 20.904 24.6426 20.7173 24.3333 20.344C24.024 19.9707 23.8693 19.56 23.8693 19.112V19.048C23.8693 18.5627 24.0346 18.1387 24.3653 17.776C24.696 17.4293 25.0906 17.256 25.5493 17.256H25.6693C26.1386 17.256 26.5386 17.432 26.8693 17.784C27.2 18.1467 27.3653 18.568 27.3653 19.048V21.272C27.3653 21.8267 27.2 22.2747 26.8693 22.616C26.544 22.9627 26.144 23.136 25.6693 23.136ZM25.6693 17.936H25.5493C25.2826 17.936 25.0506 18.0427 24.8533 18.256C24.656 18.4693 24.5573 18.7333 24.5573 19.048V19.112C24.5573 19.384 24.6506 19.6347 24.8373 19.864C25.0186 20.0987 25.256 20.216 25.5493 20.216H25.6693C25.9573 20.216 26.1973 20.0987 26.3893 19.864C26.5813 19.6293 26.6773 19.3787 26.6773 19.112V19.048C26.6773 18.7333 26.5786 18.4693 26.3813 18.256C26.184 18.0427 25.9466 17.936 25.6693 17.936Z" fill="black"/>
<rect x="3.5" y="29.5" width="19" height="33" transform="rotate(-90 3.5 29.5)" stroke="black"/>
</svg>
