<svg width="40" height="40" viewBox="0 0 40 40" fill="none" xmlns="http://www.w3.org/2000/svg">
<rect x="6.5" y="29.5" width="19" height="27" transform="rotate(-90 6.5 29.5)" stroke="black"/>
<path d="M17.6195 23.024H16.9155V21.704H14.5555L16.7795 17.2H17.6195V21H18.2755V21.704H17.6195V23.024ZM16.9155 21V18.12L15.6035 21H16.9155ZM19.5139 19.856V18.872H20.4899V19.856H19.5139ZM19.5139 23.024V22.04H20.4899V23.024H19.5139ZM24.0941 18.648C24.0941 18.1307 23.7474 17.872 23.0541 17.872C22.6488 17.872 22.3714 18.0187 22.2221 18.312L21.6941 18.12C21.9181 17.5333 22.3928 17.24 23.1181 17.24C24.2114 17.24 24.7688 17.7147 24.7901 18.664C24.7901 19.1227 24.5341 19.5093 24.0221 19.824C24.7314 20.096 25.0861 20.5947 25.0861 21.32C25.0861 21.88 24.9048 22.3093 24.5421 22.608C24.1634 22.9067 23.7208 23.056 23.2141 23.056C22.2328 23.056 21.6701 22.6533 21.5261 21.848L22.0621 21.712C22.0941 22.1707 22.4674 22.4 23.1821 22.4C23.5501 22.4 23.8434 22.2987 24.0621 22.096C24.2648 21.8933 24.3661 21.6187 24.3661 21.272C24.3661 20.648 23.8941 20.304 22.9501 20.24L22.4861 20.208V19.608L22.9341 19.568C23.7074 19.4987 24.0941 19.192 24.0941 18.648Z" fill="black"/>
</svg>
