<svg width="40" height="40" viewBox="0 0 40 40" fill="none" xmlns="http://www.w3.org/2000/svg">
<rect x="8.5" y="8.5" width="23" height="23" stroke="black"/>
<path d="M16.4195 23.024V18.416C16.1208 18.832 15.7715 19.04 15.3715 19.04H15.1715V18.456C15.4061 18.4293 15.6195 18.3733 15.8115 18.288C16.0781 18.16 16.2621 17.7973 16.3635 17.2H17.1075V23.024H16.4195ZM19.5139 19.856V18.872H20.4899V19.856H19.5139ZM19.5139 23.024V22.04H20.4899V23.024H19.5139ZM23.3101 23.024V18.416C23.0114 18.832 22.6621 19.04 22.2621 19.04H22.0621V18.456C22.2968 18.4293 22.5101 18.3733 22.7021 18.288C22.9688 18.16 23.1528 17.7973 23.2541 17.2H23.9981V23.024H23.3101Z" fill="black"/>
</svg>
