<svg width="40" height="40" viewBox="0 0 40 40" fill="none" xmlns="http://www.w3.org/2000/svg">
<rect x="10.5" y="6.5" width="19" height="27" stroke="black"/>
<path d="M17.2035 18.648C17.2035 18.1307 16.8568 17.872 16.1635 17.872C15.7581 17.872 15.4808 18.0187 15.3315 18.312L14.8035 18.12C15.0275 17.5333 15.5021 17.24 16.2275 17.24C17.3208 17.24 17.8781 17.7147 17.8995 18.664C17.8995 19.1227 17.6435 19.5093 17.1315 19.824C17.8408 20.096 18.1955 20.5947 18.1955 21.32C18.1955 21.88 18.0141 22.3093 17.6515 22.608C17.2728 22.9067 16.8301 23.056 16.3235 23.056C15.3421 23.056 14.7795 22.6533 14.6355 21.848L15.1715 21.712C15.2035 22.1707 15.5768 22.4 16.2915 22.4C16.6595 22.4 16.9528 22.2987 17.1715 22.096C17.3741 21.8933 17.4755 21.6187 17.4755 21.272C17.4755 20.648 17.0035 20.304 16.0595 20.24L15.5955 20.208V19.608L16.0435 19.568C16.8168 19.4987 17.2035 19.192 17.2035 18.648ZM19.5139 19.856V18.872H20.4899V19.856H19.5139ZM19.5139 23.024V22.04H20.4899V23.024H19.5139ZM24.5101 23.024H23.8061V21.704H21.4461L23.6701 17.2H24.5101V21H25.1661V21.704H24.5101V23.024ZM23.8061 21V18.12L22.4941 21H23.8061Z" fill="black"/>
</svg>
