<svg width="40" height="40" viewBox="0 0 40 40" fill="none" xmlns="http://www.w3.org/2000/svg">
<rect x="10.5" y="3.5" width="19" height="33" stroke="black"/>
<path d="M14.3803 23.136H14.2603C13.7909 23.136 13.3963 22.976 13.0763 22.656C12.8629 22.4427 12.7163 22.1787 12.6363 21.864L13.2923 21.624C13.3349 21.848 13.4389 22.0427 13.6043 22.208C13.7696 22.3733 13.9883 22.456 14.2603 22.456H14.3803C14.6736 22.456 14.9163 22.3467 15.1083 22.128C15.2949 21.9093 15.3883 21.624 15.3883 21.272V20.408C15.2976 20.5627 15.1563 20.6853 14.9643 20.776C14.7723 20.8613 14.5776 20.904 14.3803 20.904H14.2603C13.7589 20.904 13.3536 20.7173 13.0443 20.344C12.7349 19.9707 12.5803 19.56 12.5803 19.112V19.048C12.5803 18.5627 12.7456 18.1387 13.0763 17.776C13.4069 17.4293 13.8016 17.256 14.2603 17.256H14.3803C14.8496 17.256 15.2496 17.432 15.5803 17.784C15.9109 18.1467 16.0763 18.568 16.0763 19.048V21.272C16.0763 21.8267 15.9109 22.2747 15.5803 22.616C15.2549 22.9627 14.8549 23.136 14.3803 23.136ZM14.3803 17.936H14.2603C13.9936 17.936 13.7616 18.0427 13.5643 18.256C13.3669 18.4693 13.2683 18.7333 13.2683 19.048V19.112C13.2683 19.384 13.3616 19.6347 13.5483 19.864C13.7296 20.0987 13.9669 20.216 14.2603 20.216H14.3803C14.6683 20.216 14.9083 20.0987 15.1003 19.864C15.2923 19.6293 15.3883 19.3787 15.3883 19.112V19.048C15.3883 18.7333 15.2896 18.4693 15.0923 18.256C14.8949 18.0427 14.6576 17.936 14.3803 17.936ZM17.3147 19.856V18.872H18.2907V19.856H17.3147ZM17.3147 23.024V22.04H18.2907V23.024H17.3147ZM21.1109 23.024V18.416C20.8122 18.832 20.4629 19.04 20.0629 19.04H19.8629V18.456C20.0975 18.4293 20.3109 18.3733 20.5029 18.288C20.7695 18.16 20.9535 17.7973 21.0549 17.2H21.7989V23.024H21.1109ZM25.5653 17.248H25.6853C26.1546 17.248 26.5493 17.408 26.8693 17.728C27.088 17.9467 27.2346 18.2107 27.3093 18.52L26.6533 18.76C26.6106 18.536 26.5066 18.3413 26.3413 18.176C26.176 18.0107 25.9573 17.928 25.6853 17.928H25.5653C25.2666 17.928 25.0266 18.0587 24.8453 18.32C24.6533 18.5813 24.5573 18.8907 24.5573 19.248V19.896C24.648 19.7413 24.7813 19.6187 24.9573 19.528C25.1386 19.4427 25.3413 19.4 25.5653 19.4H25.6853C26.1866 19.4 26.592 19.5867 26.9013 19.96C27.2106 20.3333 27.3653 20.744 27.3653 21.192V21.336C27.3653 21.8213 27.2 22.2427 26.8693 22.6C26.544 22.9573 26.1493 23.136 25.6853 23.136H25.5653C25.0906 23.136 24.688 22.9573 24.3573 22.6C24.032 22.2373 23.8693 21.816 23.8693 21.336V19.248C23.8693 18.64 24.032 18.1547 24.3573 17.792C24.688 17.4293 25.0906 17.248 25.5653 17.248ZM25.5653 22.448H25.6853C25.952 22.448 26.184 22.3413 26.3813 22.128C26.5786 21.9147 26.6773 21.6507 26.6773 21.336V21.192C26.6773 20.9093 26.5866 20.6533 26.4053 20.424C26.224 20.2 25.984 20.088 25.6853 20.088H25.5653C25.2773 20.088 25.0373 20.2053 24.8453 20.44C24.6533 20.6747 24.5573 20.9253 24.5573 21.192V21.336C24.5573 21.64 24.6586 21.9013 24.8613 22.12C25.064 22.3387 25.2986 22.448 25.5653 22.448Z" fill="black"/>
</svg>
