<svg width="40" height="40" viewBox="0 0 40 40" fill="none" xmlns="http://www.w3.org/2000/svg">
<path d="M15.1514 20.056C15.1514 19.528 14.8581 19.264 14.2714 19.264C13.6847 19.264 13.2314 19.4133 12.9114 19.712L12.5114 19.328C12.9327 18.9067 13.5034 18.696 14.2234 18.696H14.2634C15.3141 18.696 15.8394 19.2667 15.8394 20.408V22.216C15.8394 22.4293 15.9194 22.696 16.0794 23.016L15.4954 23C15.2767 22.872 15.1567 22.6533 15.1354 22.344C14.8794 22.7867 14.5167 23.0347 14.0474 23.088C13.5301 23.088 13.1381 22.9707 12.8714 22.736C12.6047 22.5013 12.4714 22.2187 12.4714 21.888V21.864C12.4714 21.5227 12.5514 21.2187 12.7114 20.952C13.0261 20.456 13.8341 20.1947 15.1354 20.168L15.1514 20.056ZM13.3274 22.216C13.4021 22.3333 13.6021 22.392 13.9274 22.392C14.2474 22.392 14.4954 22.3307 14.6714 22.208C14.8527 22.0907 14.9887 21.88 15.0794 21.576C15.1167 21.4693 15.1354 21.3867 15.1354 21.328V20.696C14.5114 20.7173 14.0341 20.8293 13.7034 21.032C13.3727 21.2293 13.2074 21.4827 13.2074 21.792C13.2074 21.9627 13.2474 22.104 13.3274 22.216ZM17.5073 18.816V20.984C17.5073 21.96 17.7899 22.448 18.3553 22.448C19.1339 22.448 19.5233 21.928 19.5233 20.888V18.816H20.2673V23.024H19.5233V22.36C19.3206 22.8667 18.9099 23.12 18.2913 23.12C17.2726 23.1093 16.7633 22.4507 16.7633 21.144V18.816H17.5073ZM23.364 22.264L23.412 22.552C23.2893 22.888 22.964 23.056 22.436 23.056C21.7 23.056 21.332 22.68 21.332 21.928V19.48H20.748V18.896H21.332V17.656H22.06V18.896H23.252V19.48H22.06V21.816C22.06 22.2533 22.2813 22.472 22.724 22.472C23.012 22.472 23.2253 22.4027 23.364 22.264ZM27.0723 19.296C27.4616 19.7173 27.6563 20.2453 27.6563 20.88C27.6563 21.5147 27.4589 22.0533 27.0643 22.496C26.6749 22.9387 26.1949 23.16 25.6243 23.16C25.0536 23.16 24.5816 22.9387 24.2083 22.496C23.8349 22.0533 23.6483 21.5147 23.6483 20.88C23.6483 20.2453 23.8349 19.7173 24.2083 19.296C24.5816 18.8747 25.0563 18.664 25.6323 18.664C26.2029 18.664 26.6829 18.8747 27.0723 19.296ZM24.7123 19.736C24.4936 20.0507 24.3843 20.4293 24.3843 20.872C24.3843 21.3093 24.4909 21.6987 24.7043 22.04C24.9229 22.3867 25.2216 22.56 25.6003 22.56C25.9789 22.56 26.2829 22.3893 26.5123 22.048C26.7363 21.7013 26.8483 21.3067 26.8483 20.864C26.8483 20.4213 26.7363 20.0453 26.5123 19.736C26.2883 19.4213 25.9869 19.264 25.6083 19.264C25.2296 19.264 24.9309 19.4213 24.7123 19.736Z" fill="black"/>
<line x1="31.5" y1="7" x2="31.5" y2="34" stroke="black"/>
<line x1="8.5" y1="7" x2="8.5" y2="34" stroke="black"/>
</svg>
